HIERARCHY
ROOT Hips
{
	OFFSET -0.001795 -0.223333 0.028219
	CHANNELS 6 Xposition Yposition Zposition Zrotation Yrotation Xrotation 
	JOINT LeftUpLeg
	{
		OFFSET 0.069520 -0.091406 -0.006815
		CHANNELS 3 Zrotation Yrotation Xrotation
		JOINT LeftLeg
		{
			OFFSET 0.034277 -0.375199 -0.004496
			CHANNELS 3 Zrotation Yrotation Xrotation
			JOINT LeftFoot
			{
				OFFSET -0.013596 -0.397961 -0.043693
				CHANNELS 3 Zrotation Yrotation Xrotation
				JOINT LeftToe
				{
					OFFSET 0.026358 -0.055791 0.119288
					CHANNELS 3 Zrotation Yrotation Xrotation
					End Site
					{
						OFFSET 0.000000 0.000000 0.000000
					}
				}
			}
		}
	}
	JOINT RightUpLeg
	{
		OFFSET -0.067670 -0.090522 -0.004320
		CHANNELS 3 Zrotation Yrotation Xrotation
		JOINT RightLeg
		{
			OFFSET -0.038290 -0.382569 -0.008850
			CHANNELS 3 Zrotation Yrotation Xrotation
			JOINT RightFoot
			{
				OFFSET 0.015774 -0.398415 -0.042312
				CHANNELS 3 Zrotation Yrotation Xrotation
				JOINT RightToe
				{
					OFFSET -0.025372 -0.048144 0.123348
					CHANNELS 3 Zrotation Yrotation Xrotation
					End Site
					{
						OFFSET 0.000000 0.000000 0.000000
					}
				}
			}
		}
	}
	JOINT Spine
	{
		OFFSET -0.002533 0.108963 -0.026696
		CHANNELS 3 Zrotation Yrotation Xrotation
		JOINT Spine1
		{
			OFFSET 0.005487 0.135180 0.001092
			CHANNELS 3 Zrotation Yrotation Xrotation
			JOINT Spine2
			{
				OFFSET 0.001457 0.052922 0.025425
				CHANNELS 3 Zrotation Yrotation Xrotation
				JOINT Neck
				{
					OFFSET -0.002778 0.213870 -0.042857
					CHANNELS 3 Zrotation Yrotation Xrotation
					JOINT Head
					{
						OFFSET 0.005152 0.064970 0.051349
						CHANNELS 3 Zrotation Yrotation Xrotation
						End Site
						{
							OFFSET 0.000000 0.000000 0.000000
						}
					}
				}
				JOINT LeftShoulder
				{
					OFFSET 0.078845 0.121749 -0.034090
					CHANNELS 3 Zrotation Yrotation Xrotation
					JOINT LeftArm
					{
						OFFSET 0.090977 0.030469 -0.008868
						CHANNELS 3 Zrotation Yrotation Xrotation
						JOINT LeftForeArm
						{
							OFFSET 0.259612 -0.012772 -0.027456
							CHANNELS 3 Zrotation Yrotation Xrotation
							JOINT LeftHand
							{
								OFFSET 0.249234 0.008986 -0.001171
								CHANNELS 3 Zrotation Yrotation Xrotation
								End Site
								{
									OFFSET 0.000000 0.000000 0.000000
								}
							}
						}
					}
				}
				JOINT RightShoulder
				{
					OFFSET -0.081759 0.118833 -0.038615
					CHANNELS 3 Zrotation Yrotation Xrotation
					JOINT RightArm
					{
						OFFSET -0.096012 0.032551 -0.009143
						CHANNELS 3 Zrotation Yrotation Xrotation
						JOINT RightForeArm
						{
							OFFSET -0.253742 -0.013329 -0.021401
							CHANNELS 3 Zrotation Yrotation Xrotation
							JOINT RightHand
							{
								OFFSET -0.255298 0.007772 -0.005559
								CHANNELS 3 Zrotation Yrotation Xrotation
								End Site
								{
									OFFSET 0.000000 0.000000 0.000000
								}
							}
						}
					}
				}
			}
		}
	}
}
MOTION
Frames: 16
Frame Time: 0.050000
0.000000 0.938983 0.000000 -1.639366 1.224288 6.110502 4.686536 -0.302121 -3.149172 1.923511 -0.184426 -0.331887 2.595650 7.729059 7.195504 0.000000 0.000000 0.000000 -3.906982 0.566578 -6.334679 1.584318 -0.093553 3.004962 -0.010867 -3.310134 7.644578 0.000000 0.000000 0.000000 1.009085 0.093996 -2.535987 -0.350421 0.261510 -3.632250 -0.708414 -0.833594 9.608239 1.885094 0.120798 -18.196978 0.000000 0.000000 0.000000 -19.333670 -2.302081 -0.440738 -58.747231 -6.967002 -4.020191 -10.633389 -24.341558 3.314829 0.000000 0.000000 0.000000 16.710208 2.414998 -0.177088 60.393297 9.444228 -1.493103 9.224995 25.347297 2.844011 0.000000 0.000000 0.000000 
-0.000540 0.937847 -0.000109 -1.837836 0.409309 6.460352 4.689985 -0.273303 -2.607419 2.187612 -0.142524 -1.676169 2.983736 8.374174 7.247282 0.000000 0.000000 0.000000 -4.165451 0.588733 -6.591527 2.319832 -0.193611 2.536062 0.323632 -2.612731 7.482484 0.000000 0.000000 0.000000 1.056026 0.125945 -3.187099 -0.751216 0.412009 -2.867480 -0.163872 -1.058075 8.852183 0.708545 0.752360 -18.449498 0.000000 0.000000 0.000000 -19.021494 -0.860575 -1.029278 -58.711223 -6.675956 -4.090696 -14.745745 -28.928071 5.119949 0.000000 0.000000 0.000000 15.783284 2.767796 -0.129993 60.630387 9.775707 -1.238371 13.282053 29.208181 4.269571 0.000000 0.000000 0.000000 
-0.000830 0.938346 -0.000657 -1.332515 0.788072 6.319727 4.466760 -0.287574 -2.898535 1.714494 -0.126324 -1.104347 2.742245 8.001702 7.358399 0.000000 0.000000 0.000000 -4.570108 0.590173 -6.838608 2.164492 -0.161364 3.317295 0.095239 -3.004107 7.324843 0.000000 0.000000 0.000000 0.492714 0.116077 -2.930242 -0.476375 0.313423 -3.686720 -0.585907 -1.649395 8.689173 -0.481746 1.275918 -15.845476 0.000000 0.000000 0.000000 -18.949496 -0.549452 -1.122005 -58.100876 -6.885831 -3.950263 -16.279552 -35.033420 6.843647 0.000000 0.000000 0.000000 16.543307 3.603142 0.170198 58.605032 9.604919 -1.299633 17.510595 35.474134 6.599044 0.000000 0.000000 0.000000 
-0.001219 0.937855 -0.001299 -1.548129 0.897996 6.209243 4.896269 -0.313481 -3.396135 1.445694 -0.147042 -0.106132 2.799185 7.997267 6.930600 0.000000 0.000000 0.000000 -4.743326 0.612007 -7.321420 2.956397 -0.257011 4.330097 0.026557 -3.084201 7.176010 0.000000 0.000000 0.000000 0.399934 0.121216 -3.030747 -1.000315 0.538022 -3.515417 0.021923 -1.993292 8.344971 -0.795564 1.373957 -14.733163 0.000000 0.000000 0.000000 -16.907725 -0.264302 -1.037621 -59.353280 -7.245290 -3.770221 -21.725216 -45.199476 11.543458 0.000000 0.000000 0.000000 15.539915 3.759091 0.223320 57.310942 10.747691 -0.698434 24.867447 44.060806 11.361656 0.000000 0.000000 0.000000 
-0.001679 0.937977 -0.002210 -1.415553 1.293765 5.822118 4.581473 -0.287764 -2.922059 1.889893 -0.175327 -0.443704 2.568604 7.632533 7.003082 0.000000 0.000000 0.000000 -5.042750 0.569838 -6.872094 3.364193 -0.321096 4.291702 -0.101748 -3.331196 7.196252 0.000000 0.000000 0.000000 0.183910 0.109100 -2.730156 -0.757388 0.428492 -3.159116 -0.314131 -2.105236 7.978961 -0.941794 1.453040 -14.082669 0.000000 0.000000 0.000000 -16.475082 0.128544 -1.255710 -58.037519 -7.754346 -3.421514 -34.342243 -56.840599 22.297081 0.000000 0.000000 0.000000 15.156609 3.249412 0.023323 55.877596 11.792684 -0.183823 37.422729 55.772411 21.981969 0.000000 0.000000 0.000000 
-0.001980 0.938217 -0.003289 -1.612049 1.035276 5.838525 4.639673 -0.303999 -3.278485 2.140280 -0.231413 0.120607 2.731328 7.904558 6.995099 0.000000 0.000000 0.000000 -4.922065 0.593449 -7.186668 3.513918 -0.337818 4.597755 0.029226 -3.125360 7.331877 0.000000 0.000000 0.000000 0.002572 0.122236 -3.017401 -0.566856 0.345562 -3.262755 -0.154055 -1.691332 8.319327 -0.275727 1.010398 -13.315564 0.000000 0.000000 0.000000 -15.511023 0.538731 -1.428449 -57.699960 -8.450015 -3.086888 -54.045964 -64.718912 40.003724 0.000000 0.000000 0.000000 14.371620 3.392233 0.214626 53.729037 13.611230 0.560855 55.414571 67.109975 40.874850 0.000000 0.000000 0.000000 
-0.002150 0.938556 -0.004516 -1.461425 0.828978 5.726340 4.326896 -0.303605 -3.338657 2.365843 -0.270112 0.367655 2.799399 8.057675 7.156552 0.000000 0.000000 0.000000 -5.086010 0.592725 -7.246237 3.491836 -0.331282 4.727539 0.118860 -2.969569 7.374350 0.000000 0.000000 0.000000 -0.061666 0.119278 -2.932709 -0.725932 0.407231 -2.966829 -0.051316 -1.719607 7.890288 -0.721064 1.260906 -12.862010 0.000000 0.000000 0.000000 -14.531880 0.221850 -1.168039 -57.305757 -10.789582 -1.879590 -74.188020 -68.894301 59.818174 0.000000 0.000000 0.000000 13.492879 3.810720 0.437450 52.518364 16.341617 1.759021 79.496761 72.418084 65.574292 0.000000 0.000000 0.000000 
-0.002217 0.938980 -0.005836 -1.420028 0.700912 5.498795 4.157852 -0.308684 -3.495439 2.552861 -0.325681 0.972321 2.856483 8.170570 7.225554 0.000000 0.000000 0.000000 -4.908397 0.601959 -7.352805 3.085851 -0.265017 5.177358 0.159594 -2.898928 7.381181 0.000000 0.000000 0.000000 0.023399 0.121702 -2.994786 -0.871649 0.468599 -2.858458 -0.141289 -1.695568 7.851080 -0.833041 1.311785 -12.467046 0.000000 0.000000 0.000000 -13.417007 -0.814010 -0.572730 -57.961422 -14.452404 -0.042088 -89.977993 -71.105408 76.711649 0.000000 0.000000 0.000000 12.582271 4.409161 0.776922 51.398891 19.921615 3.232718 98.429016 73.786615 85.311803 0.000000 0.000000 0.000000 
-0.002227 0.939420 -0.007049 -1.440809 0.346018 5.413297 3.962536 -0.299655 -3.382249 2.855142 -0.358399 0.914047 2.990866 8.440961 7.446173 0.000000 0.000000 0.000000 -4.968181 0.622864 -7.707068 3.169321 -0.267778 5.722134 0.319472 -2.637114 7.497847 0.000000 0.000000 0.000000 0.070501 0.110398 -2.709052 -1.037828 0.544184 -3.130165 -0.084032 -1.442733 7.700028 -0.854579 1.324818 -12.324057 0.000000 0.000000 0.000000 -12.459093 -2.122500 0.100075 -59.244953 -17.770774 1.756834 -98.902603 -72.423931 87.070985 0.000000 0.000000 0.000000 11.739315 5.616508 1.394106 49.896138 23.792501 4.734239 107.489172 74.400178 95.447327 0.000000 0.000000 0.000000 
-0.002246 0.939692 -0.008085 -1.468852 0.100143 5.231502 3.828155 -0.297137 -3.393661 3.087839 -0.407063 1.249812 3.105346 8.646101 7.521751 0.000000 0.000000 0.000000 -4.920930 0.619262 -7.616174 3.102348 -0.254563 5.721656 0.449295 -2.421094 7.587075 0.000000 0.000000 0.000000 0.331752 0.112387 -2.769364 -1.208707 0.617554 -3.126680 -0.383471 -1.285277 7.739747 -0.852178 1.328455 -12.272650 0.000000 0.000000 0.000000 -11.595566 -3.179252 0.625846 -60.020957 -20.591124 3.337326 -105.282695 -73.441441 94.831309 0.000000 0.000000 0.000000 10.630109 6.703057 1.951151 48.696010 27.187271 5.977326 113.555293 75.443160 103.174101 0.000000 0.000000 0.000000 
-0.002345 0.939829 -0.008894 -1.482024 -0.206050 5.001625 3.985123 -0.279818 -3.169145 2.777424 -0.375372 1.308544 3.220035 8.841288 7.577533 0.000000 0.000000 0.000000 -4.884225 0.627949 -7.744642 3.027889 -0.233048 6.219695 0.568556 -2.184634 7.554964 0.000000 0.000000 0.000000 0.401568 0.106539 -2.627657 -1.505189 0.745766 -3.117545 -0.174841 -1.312619 7.624434 -1.076762 1.433443 -11.795968 0.000000 0.000000 0.000000 -11.241159 -3.954194 1.031921 -60.229384 -21.888122 4.094817 -112.257161 -73.502740 102.607302 0.000000 0.000000 0.000000 9.708082 7.634857 2.358814 47.645684 30.183042 7.034554 114.581526 77.303563 106.061667 0.000000 0.000000 0.000000 
-0.002484 0.940041 -0.009539 -1.447374 -0.295310 5.002511 3.956836 -0.277982 -3.147544 2.756331 -0.367958 1.218204 3.235980 8.891729 7.698529 0.000000 0.000000 0.000000 -4.937292 0.627046 -7.743800 3.055060 -0.237719 6.111703 0.624147 -2.109847 7.639336 0.000000 0.000000 0.000000 0.335184 0.118467 -2.887524 -1.486195 0.733611 -2.825233 -0.147235 -1.350556 7.327845 -1.168745 1.486351 -11.779975 0.000000 0.000000 0.000000 -10.722674 -4.520332 1.312591 -60.185924 -22.796870 4.634598 -118.310123 -74.009430 109.906716 0.000000 0.000000 0.000000 9.096308 8.108969 2.565170 46.772548 32.201761 7.702954 114.196946 79.708034 108.004531 0.000000 0.000000 0.000000 
-0.002720 0.940007 -0.010125 -1.449673 -0.489891 4.863912 3.827563 -0.264264 -2.950064 2.974041 -0.389990 1.137914 3.320749 9.039562 7.749462 0.000000 0.000000 0.000000 -4.883433 0.630968 -7.780190 2.963510 -0.217849 6.328771 0.692121 -1.957339 7.573499 0.000000 0.000000 0.000000 0.316870 0.125733 -3.040216 -1.586228 0.775438 -2.686247 0.161528 -1.532276 7.226731 -1.381733 1.579718 -11.340127 0.000000 0.000000 0.000000 -10.627192 -4.614817 1.406013 -59.917746 -23.044349 4.765761 -125.578396 -73.418334 117.944140 0.000000 0.000000 0.000000 8.651514 8.660163 2.764534 46.052238 33.571264 8.088653 114.465179 82.148729 110.501442 0.000000 0.000000 0.000000 
-0.002981 0.939825 -0.010780 -1.484780 -0.458144 4.700000 3.772705 -0.259198 -2.887610 3.178538 -0.422104 1.264698 3.323434 9.028534 7.668180 0.000000 0.000000 0.000000 -4.723439 0.620100 -7.555870 2.788960 -0.192783 6.191329 0.672765 -1.963486 7.494663 0.000000 0.000000 0.000000 0.189817 0.127522 -3.080628 -1.460061 0.717892 -2.487496 0.298322 -1.573470 7.048132 -1.510071 1.648815 -11.012767 0.000000 0.000000 0.000000 -10.314799 -4.820875 1.507647 -59.814259 -23.649477 5.108520 -132.940518 -73.200153 126.595216 0.000000 0.000000 0.000000 8.525809 8.823916 2.828264 45.406988 34.338840 8.253118 117.235858 83.747617 114.928934 0.000000 0.000000 0.000000 
-0.003257 0.939455 -0.011382 -1.561060 -0.358469 4.765422 3.771361 -0.263820 -2.946454 3.390297 -0.439238 1.148131 3.305261 8.978130 7.562597 0.000000 0.000000 0.000000 -4.606118 0.621013 -7.518473 2.776090 -0.195571 5.959410 0.620411 -2.038505 7.429625 0.000000 0.000000 0.000000 0.177544 0.141017 -3.399365 -1.352657 0.669215 -2.380626 0.432507 -1.642380 6.953927 -1.484749 1.613787 -10.651963 0.000000 0.000000 0.000000 -10.268009 -4.375157 1.310278 -59.839654 -23.633371 5.118326 -140.028207 -72.703879 135.025205 0.000000 0.000000 0.000000 8.828349 8.676931 2.750625 45.409551 34.528856 8.339488 122.692374 84.496784 121.357931 0.000000 0.000000 0.000000 
-0.003477 0.939059 -0.011915 -1.563215 -0.108046 4.873071 3.800100 -0.275713 -3.112551 3.430527 -0.438912 1.088929 3.214917 8.804044 7.429250 0.000000 0.000000 0.000000 -4.663193 0.615077 -7.467756 2.943573 -0.228622 5.667908 0.508646 -2.228488 7.370329 0.000000 0.000000 0.000000 0.033580 0.150875 -3.664404 -1.256493 0.627116 -2.343299 0.460210 -1.643183 6.767983 -1.542159 1.647511 -10.271395 0.000000 0.000000 0.000000 -9.944166 -4.009143 1.131949 -59.884870 -23.627872 5.139564 -147.730219 -72.315139 144.559502 0.000000 0.000000 0.000000 9.333719 8.566164 2.704479 45.396199 34.147072 8.210183 137.584935 84.211608 137.120461 0.000000 0.000000 0.000000 
